<svg width="1758" height="1718" fill="none" xmlns="http://www.w3.org/2000/svg"><path d="M171 1h1l112 344h362c1 0 2 1 1 2L355 559l-1 2 112 343c0 1-1 2-2 1L172 693h-1l-292 212c-1 1-2 0-2-1l112-343-1-2-292-212c-1-1 0-2 1-2H59L171 1Z" fill="#010101"/><path d="M171 54h1l100 307 1 1h323v1L335 553v1l100 307c0 1-1 2-2 1L172 673h-1L-90 862c-1 1-2 0-2-1L8 554v-1l-261-190v-1H70l1-1L171 54Z" fill="#1B1B1B"/><path d="M171 107h1l88 270 1 1h284c1 0 2 1 1 2L316 547v1l87 270c1 1 0 2-1 1L172 652h-1L-59 819c-1 1-2 0-1-1l87-270v-1l-230-167c-1-1 0-2 1-2H82l1-1 88-270Z" fill="#010101"/><path d="M171 169h1l74 228h240c1 0 2 1 1 2L294 540l-1 1 74 227c0 1-1 2-2 1L172 629h-1L-22 769c-1 1-2 0-2-1l74-227-1-1-193-141c-1-1 0-2 1-2H97l74-228Z" fill="#1B1B1B"/><path d="M171 225h1l62 189h200v2L273 533v1l61 189c1 1 0 2-1 1L172 607h-1L10 724c-1 1-2 0-1-1l61-189v-1L-91 416v-2h200l62-189Z" fill="#010101"/><path d="M171 284h1l48 148 1 1h156v2l-125 91-1 1 48 148c1 1 0 2-1 1l-126-91h-1L45 676c-1 1-2 0-1-1l48-148-1-1-125-91v-2h156l1-1 48-148Z" fill="#1B1B1B"/><path d="M171 355h1l33 101h107v2l-85 62-1 1 33 101-2 1-85-62h-1l-85 62-2-1 33-101-1-1-85-62v-2h107l33-101Z" fill="#010101"/><path d="M171 435h1l15 45 1 1h48v2l-38 28-1 1 15 45-1 1-39-28h-1l-39 28-1-1 15-45-1-1-38-28v-2h48l1-1 15-45Z" fill="#1B1B1B"/><path d="M172 498v3h4l-3 2 1 3-2-2-3 2 1-3-3-2h4l1-3Z" fill="#010101"/><path d="m734 217 2 1-71 355v1l316 176-1 2-359 42v1l-71 355h-2L397 822l-1-1-359 42-1-1 266-246v-1L151 287c-1-1 0-2 1-1l315 177 2-1 265-245Z" fill="#010101"/><path d="M708 264c1-1 2 0 2 1l-63 316v1l282 158-1 2-320 38h-1l-63 317h-2L407 804l-1-1-321 38v-2l237-219v-1L187 326c0-1 0-2 1-1l282 158h1l237-219Z" fill="#1B1B1B"/><path d="M682 310c1-1 2 0 2 1l-56 278 1 2 247 139v1l-282 34h-1l-56 279h-1L417 786h-1l-282 33c-1 0-2-1-1-2l209-193v-1L223 365l1-1 248 139h1l209-193Z" fill="#010101"/><path d="M652 364c0-1 2 0 1 1l-46 234v1l209 117-1 2-237 28-1 1-47 234c0 1-1 2-2 1L428 766l-1-1-237 28c-1 0-2-1-1-2l176-162v-1L265 411l1-2 209 117h1l176-162Z" fill="#1B1B1B"/><path d="M625 412s2 0 1 1l-39 195 1 1 173 98v1l-198 24-39 195-2 1-83-181h-1l-198 23-1-2 146-135 1-1-83-181c-1-1 0-1 1-1l173 97h2l146-135Z" fill="#010101"/><path d="m595 464 2 1-30 153v1l136 76-1 2-154 18-1 1-30 152h-2l-65-141h-1l-155 18v-2l114-105v-2l-65-141 2-1 135 76h1l114-106Z" fill="#1B1B1B"/><path d="M561 526s2 0 1 1l-20 104v1l92 51v2l-105 13h-1l-20 104h-2l-44-96h-1l-105 12c-1 0-2-1-1-2l77-71 1-1-44-96c-1-1 0-2 1-2l92 52h1l78-72Z" fill="#010101"/><path d="M522 596c1-1 2 0 1 1l-9 46 1 1 41 24v2l-48 5v1l-10 47h-2l-20-43-1-1-47 6-1-2 35-32 1-2-20-43c-1-1 0-2 1-1l42 23h1l35-32Z" fill="#1B1B1B"/><path d="m492 652-1 3 3 1-3 1-1 3-1-3h-4l3-2-2-3 3 2 3-2ZM124 427h2l19 354 1 1 343 92v2l-331 127-1 1 19 355h-1l-224-275-1-1-331 128-1-1 192-298v-1l-223-276c-1-1 0-2 1-1l343 91h1l192-298Z" fill="#010101"/><path d="M111 477c1-1 2 0 2 1l17 316 1 1 306 82v1L141 992v1l17 317-2 1-200-246-1-1-296 114c-1 1-1 0-1-1l172-266v-1l-200-246 2-2 306 82 1-1 172-266Z" fill="#1B1B1B"/><path d="M98 528h1l15 279 1 1 270 71v2L125 982l-1 1 15 278c0 1-1 2-2 1l-176-217h-1l-260 100c-1 1-2 0-1-1l151-234v-2l-176-216 1-2 270 72h1L98 528Z" fill="#010101"/><path d="m82 586 2 1 12 234 1 1 227 61v2l-219 84-1 1 13 234c0 1-1 2-2 1l-148-182-1-1-219 85c-1 0-2-1-1-2l127-197v-1l-148-182 1-2 227 61 1-1L82 586Z" fill="#1B1B1B"/><path d="M68 639h2l10 195 1 1 189 51v1L88 958l-1 1 10 195h-1l-123-151-2-1-182 71-1-2 106-164v-1l-123-151c-1-1 0-2 1-2l189 50h1L68 639Z" fill="#010101"/><path d="M53 696h2l8 152 1 1 147 40v2L69 945l-1 1 8 153-1 1-97-119h-1l-142 55c-1 0-2-1-1-2l83-128-1-1-96-119 1-1 148 39h1l83-128Z" fill="#1B1B1B"/><path d="M35 763h2l5 104 1 1 100 26v2l-96 38-1 1 5 103c1 1-1 1-1 1l-66-81h-1l-96 37c-1 1-2 0-2-1l57-87v-1l-66-81c0-1 0-2 1-1l100 26h2l56-87Z" fill="#010101"/><path d="m15 838 2 1 2 47 1 1 45 12v2l-44 16v1l2 47-1 1-30-37h-1l-44 17-1-2 26-39-1-1-29-36c-1-1 0-2 1-2l45 12h1l26-40Z" fill="#1B1B1B"/><path d="M0 899v3l3 1-3 1v3l-2-2-3 1 2-3-2-2 3 1 2-3Z" fill="#010101"/><path d="M278 764h2l19 354 1 1 343 92v2l-331 127-1 1 19 355h-1l-224-275-1-1-331 128-1-1 192-298v-1l-223-276c-1-1 0-2 1-1l343 91h1l192-298Z" fill="#010101"/><path d="M265 814c1-1 2 0 2 1l17 316 1 1 306 82v1l-296 114v1l17 317-2 1-200-246-1-1-296 114c-1 1-1 0-1-1l172-266v-1l-200-246 2-2 306 82 1-1 172-266Z" fill="#1B1B1B"/><path d="M252 865h1l15 279 1 1 270 71v2l-260 101-1 1 15 278c0 1-1 2-2 1l-176-217h-1l-260 100c-1 1-2 0-1-1L4 1247v-2l-176-216 1-2 270 72h1l152-234Z" fill="#010101"/><path d="m236 923 2 1 12 234 1 1 227 61v2l-219 84-1 1 13 234c0 1-1 2-2 1l-148-182-1-1-219 85c-1 0-2-1-1-2l127-197v-1l-148-182 1-2 227 61 1-1 128-197Z" fill="#1B1B1B"/><path d="M222 976h2l10 195 1 1 189 51v1l-182 71-1 1 10 195h-1l-123-151-2-1-182 71-1-2 106-164v-1l-123-151c-1-1 0-2 1-2l189 50h1l106-164Z" fill="#010101"/><path d="M207 1033h2l8 152 1 1 147 40v2l-142 54-1 1 8 153-1 1-97-119h-1l-142 55c-1 0-2-1-1-2l83-128-1-1-96-119 1-1 148 39h1l83-128Z" fill="#1B1B1B"/><path d="M189 1100h2l5 104 1 1 100 26v2l-96 38-1 1 5 103c1 1-1 1-1 1l-66-81h-1l-96 37c-1 1-2 0-2-1l57-87v-1l-66-81c0-1 0-2 1-1l100 26h2l56-87Z" fill="#010101"/><path d="m169 1175 2 1 2 47 1 1 45 12v2l-44 16v1l2 47-1 1-30-37h-1l-44 17-1-2 26-39-1-1-29-36c-1-1 0-2 1-2l45 12h1l26-40Z" fill="#1B1B1B"/><path d="M154 1236v3l3 1-3 1v3l-2-2-3 1 2-3-2-2 3 1 2-3ZM1264 785h2l19 354 1 1 343 92v2l-331 127-1 1 19 355h-1l-224-275-1-1-331 128-1-1 192-298v-1L727 993c-1-1 0-2 1-1l343 91h1l192-298Z" fill="#010101"/><path d="M1251 835c1-1 2 0 2 1l17 316 1 1 306 82v1l-296 114v1l17 317-2 1-200-246-1-1-296 114c-1 1-1 0-1-1l172-266v-1l-200-246 2-2 306 82 1-1 172-266Z" fill="#1B1B1B"/><path d="M1238 886h1l15 279 1 1 270 71v2l-260 101-1 1 15 278c0 1-1 2-2 1l-176-217h-1l-260 100c-1 1-2 0-1-1l151-234v-2l-176-216 1-2 270 72h1l152-234Z" fill="#010101"/><path d="m1222 944 2 1 12 234 1 1 227 61v2l-219 84-1 1 13 234c0 1-1 2-2 1l-148-182-1-1-219 85c-1 0-2-1-1-2l127-197v-1l-148-182 1-2 227 61 1-1 128-197Z" fill="#1B1B1B"/><path d="M1208 997h2l10 195 1 1 189 51v1l-182 71-1 1 10 195h-1l-123-151-2-1-182 71-1-2 106-164v-1l-123-151c-1-1 0-2 1-2l189 50h1l106-164Z" fill="#010101"/><path d="M1193 1054h2l8 152 1 1 147 40v2l-142 54-1 1 8 153-1 1-97-119h-1l-142 55c-1 0-2-1-1-2l83-128-1-1-96-119 1-1 148 39h1l83-128Z" fill="#1B1B1B"/><path d="M1175 1121h2l5 104 1 1 100 26v2l-96 38-1 1 5 103c1 1-1 1-1 1l-66-81h-1l-96 37c-1 1-2 0-2-1l57-87v-1l-66-81c0-1 0-2 1-1l100 26h2l56-87Z" fill="#010101"/><path d="m1155 1196 2 1 2 47 1 1 45 12v2l-44 16v1l2 47-1 1-30-37h-1l-44 17-1-2 26-39-1-1-29-36c-1-1 0-2 1-2l45 12h1l26-40Z" fill="#1B1B1B"/><path d="M1140 1257v3l3 1-3 1v3l-2-2-3 1 2-3-2-2 3 1 2-3ZM86 571l1-1 247 181h1l245-178c1 0 2 0 1 1l-91 290v1l247 181v2l-304-2-1 1-92 289h-2l-96-291h-1l-304-2v-2l244-178 1-1-96-291Z" fill="#010101"/><path d="M112 608c0-1 1-2 2-1l220 161h1l219-159s2 1 1 2l-82 258 1 1 220 162v1l-271-1-1 1-82 258h-2l-86-259-1-1-271-2-1-1 219-159v-1l-86-260Z" fill="#1B1B1B"/><path d="M139 645c-1-1 0-2 1-2l194 142h2l192-139c0-1 2 0 1 1l-72 227 1 1 194 143-1 1-239-1v1l-73 227h-1l-76-228-1-1-239-1v-2l192-140v-1l-75-228Z" fill="#010101"/><path d="M170 687c-1-1 0-2 1-1l164 119h1l161-117c1-1 2 0 2 1l-61 191 1 2 163 119c1 1 0 2-1 2l-200-1h-1l-61 192h-2l-63-192-1-1-201-1-1-2 162-118v-1l-63-192Z" fill="#1B1B1B"/><path d="M197 725c0-1 1-2 2-1l136 99h1l134-97c1-1 2 0 2 1l-51 159 1 1 136 99-1 2-167-1-1 1-50 159h-2l-53-160h-1l-167-1v-2l134-98v-1l-53-160Z" fill="#010101"/><path d="m227 766 2-1 106 78h1l105-77 1 1-39 125v1l107 77-1 2-130-1-1 1-40 124h-2l-41-124-1-1-130-1-1-2 105-76 1-1-42-125Z" fill="#1B1B1B"/><path d="M263 815c-1-1 1-2 1-1l72 52h1l71-51c1-1 2 0 2 1l-27 84 1 1 72 53-1 1h-88l-1 1-27 84h-2l-28-85h-1l-88-1c-1 0-2-1-1-2l71-51 1-2-28-84Z" fill="#010101"/><path d="M303 870c-1-1 0-2 1-1l32 23h2l31-23c1-1 2 0 2 1l-12 38v1l33 23-1 2h-40l-1 1-12 37h-1l-13-37-1-1h-39l-1-2 32-23v-1l-12-38Z" fill="#1B1B1B"/><path d="m335 912 2 2 2-2-1 3 3 2h-3l-1 2-1-2h-2l2-2-1-3Z" fill="#010101"/><path d="m662 467 2-1 118 238 1 1 263-38c1-1 1 1 1 1L857 854l-1 1 118 238c1 1 0 2-1 1L738 971h-2l-190 186s-2 0-1-1l44-262v-1L354 769v-1l263-39 1-1 44-261Z" fill="#1B1B1B"/><path d="M669 510h2l103 209 1 1 232-34v2L840 851v1l103 210c1 1 0 2-1 1L735 954l-1 1-167 163c-1 1-2 0-2-1l39-230v-2L397 777v-2l232-34v-1l40-230Z" fill="#010101"/><path d="m676 561 2-1 87 177h1l195-28 1 1-141 138v1l87 176c0 1-1 2-2 1l-174-91h-1l-141 138-1-1 33-194-1-1-174-92 1-1 194-29 1-1 33-193Z" fill="#1B1B1B"/><path d="m683 606 2-1 72 147 1 1 162-24 1 2-117 114-1 1 73 146-2 2-144-76h-1l-117 114c-1 1-2 0-2-1l28-161-1-1-145-76 1-2 161-23 1-1 28-161Z" fill="#010101"/><path d="M690 655c0-1 1-2 2-1l56 115h1l127-18v1l-91 90v1l56 114c1 1 0 2-1 1l-113-59h-1l-91 89h-2l21-126v-1l-113-60v-1l127-19v-1l22-125Z" fill="#1B1B1B"/><path d="M698 712h2l38 78h2l85-12 1 1-62 61v1l38 77c1 1 0 2-1 2l-77-40h-1l-62 60c-1 1-2 0-2-1l15-85v-1l-77-40v-2l86-13h1l14-86Z" fill="#010101"/><path d="M708 777h2l17 35h1l38-5c1 0 2 1 1 2l-28 27v1l17 34c1 1 0 2-1 2l-34-18h-2l-27 27c-1 1-2 0-2-1l7-38-1-1-34-18v-2l38-6h1l7-39Z" fill="#1B1B1B"/><path d="m716 829 1 2h3l-2 2 1 2-2-1-2 2v-3l-2-1 3-1v-2Z" fill="#010101"/><path d="M1302 374h1l-63 397v1l358 183v2l-397 62-1 1-64 397h-2l-181-358-1-1-397 63c-1 0-2-1-1-2l284-284 1-1-182-358c-1-1 0-2 1-2l358 183h1l285-283Z" fill="#1B1B1B"/><path d="m1272 432 1 1-56 350 1 1 315 161v2l-350 55h-1l-56 350h-2l-160-315-1-1-350 55v-2l250-250v-1L703 522l2-1 315 161h1l251-250Z" fill="#010101"/><path d="m1237 501 1 1-47 294 1 1 265 136v2l-295 46-1 1-47 294h-2l-134-266h-2l-294 46-1-2 211-210v-1L758 577c-1-1 0-2 1-1l265 135h1l212-210Z" fill="#1B1B1B"/><path d="M1205 562c1-1 2 0 2 1l-39 245v1l221 113v2l-245 38-1 1-39 245h-2L989 987l-1-1-245 39v-2l175-175v-1L806 626l2-2 220 113h2l175-175Z" fill="#010101"/><path d="m1171 628 2 1-31 192 1 1 173 88-1 2-191 30-1 1-31 191c0 1-1 2-2 1l-88-173-1-1-191 30-1-1 137-137v-2l-87-173c-1-1 0-1 1-1l173 88h1l137-137Z" fill="#1B1B1B"/><path d="M1131 707h2l-21 131 1 1 117 60v2l-131 20v1l-21 131h-2l-60-118h-1l-131 20v-2l93-93v-1l-59-118c-1-1 0-2 1-1l118 60h1l93-93Z" fill="#010101"/><path d="M1086 795c1-1 2 0 2 1l-10 59 1 1 53 27v2l-59 10h-1l-10 60h-2l-27-53-1-1-59 9-1-1 43-43v-1l-28-54 2-1 53 27h2l42-42Z" fill="#1B1B1B"/><path d="m1051 866-1 4 4 2h-4l-1 4-2-3h-4l3-2-2-4 4 2 3-3Z" fill="#010101"/><path d="M733 809h2l127 204 1 1 235-58 1 1-156 185v1l128 205c0 1 0 2-1 1l-224-90h-1l-155 185-2-1 17-241-1-1-223-90v-2l234-58 1-1 17-241Z" fill="#1B1B1B"/><path d="M743 848h1l113 180h1l206-51 1 2-137 162v1l112 180c1 1 0 2-1 2l-197-80h-1l-136 163-2-1 15-212-1-1-196-79v-2l206-51 1-1 15-212Z" fill="#010101"/><path d="M754 893h2l94 151h1l173-43c1 0 2 1 1 2l-115 137v1l95 151-1 2-166-67h-1l-115 137-2-1 13-178-1-1-165-67v-2l173-43 1-1 13-178Z" fill="#1B1B1B"/><path d="M764 933h2l78 126h1l144-36c1 0 2 1 1 2l-95 114v1l78 125-1 2-138-56-1 1-95 113c-1 1-2 0-2-1l11-148-1-1-137-55v-2l144-36v-1l11-148Z" fill="#010101"/><path d="m775 977 1-1 62 99h1l112-28c1 0 2 1 1 2l-74 88-1 1 62 99-2 1-107-43h-1l-74 88h-2l8-116-1-1-107-43v-2l113-28v-1l9-115Z" fill="#1B1B1B"/><path d="m787 1029 2-1 42 66 1 1 76-19 1 2-51 60v1l42 66-2 2-72-30h-1l-51 60h-1l5-78v-1l-73-30v-2l76-19h1l5-78Z" fill="#010101"/><path d="M802 1087c0-1 1-2 2-1l18 30h1l34-8c1-1 2 1 1 1l-22 27-1 1 19 30-1 1-33-13h-1l-22 27c-1 1-2 0-2-1l3-34-1-1-32-14v-1l34-9v-1l3-34Z" fill="#1B1B1B"/><path d="m814 1132 1 2 3-1-2 2 1 2-2-1-1 2v-2l-2-1 2-1v-2Z" fill="#010101"/><path d="m687 860 2 1-50 273 1 1 244 131v2l-275 38-1 1-49 272-2 1-121-250-1-1-274 38c-1 0-2-1-1-2l200-192v-1L240 922c-1-1 0-2 1-1l244 131h2l200-192Z" fill="#1B1B1B"/><path d="M665 901c1-1 2 0 2 1l-43 240v1l215 115v2l-242 33-1 1-43 240h-2l-106-219-1-1-242 33c-1 0-2-1-1-2l176-169v-1L271 955l2-1 215 116 1-1 176-168Z" fill="#010101"/><path d="M640 948c1-1 2 0 2 1l-37 202 1 1 181 97-1 2-203 27-1 1-37 202h-2l-89-184-1-1-203 28c-1 0-2-1-1-2l148-142 1-1-90-185c0-1 1-2 2-1l181 97h1l148-142Z" fill="#1B1B1B"/><path d="m618 990 1 1-30 167v2l151 80c1 1 0 2-1 2l-169 23-1 1-30 168h-2l-74-153-1-1-169 23c-1 0-2-1-1-2l123-118v-1l-74-154 2-1 150 81h1l124-118Z" fill="#010101"/><path d="M593 1035c1-1 2 0 2 1l-24 131 1 1 117 63v2l-132 18-1 1-24 131h-2l-58-120h-1l-132 18-1-2 97-92v-1l-58-121 1-1 118 63h1l96-92Z" fill="#1B1B1B"/><path d="M564 1089c1-1 2 0 2 1l-16 89v1l80 42v2l-90 12-1 1-16 89h-2l-39-81-1-1-90 13v-2l65-63v-1l-39-81c-1-1 0-2 1-1l80 42h1l65-62Z" fill="#010101"/><path d="M532 1149c0-1 2 0 1 1l-7 40 1 1 35 19v2l-40 5-1 1-7 40h-2l-18-36-1-1-40 6-1-2 30-28v-1l-18-37 2-1 35 19h2l29-28Z" fill="#1B1B1B"/><path d="m507 1197-1 3 3 1-3 1v3l-2-3h-2l2-2-1-2 2 1 2-2Z" fill="#010101"/><path d="m160 7 2 1-50 273 1 1 244 131v2L82 453l-1 1-49 272-2 1-121-250-1-1-274 38c-1 0-2-1-1-2l200-192v-1L-287 69c-1-1 0-2 1-1l244 131h2L160 7Z" fill="#1B1B1B"/><path d="M138 48c1-1 2 0 2 1L97 289v1l215 115v2L70 440l-1 1-43 240h-2L-82 461h-1l-242 33c-1 0-2-1-1-2l176-169v-1l-106-220 2-1 215 116 1-1L138 48Z" fill="#010101"/><path d="M113 95c1-1 2 0 2 1L78 298l1 1 181 97-1 2-203 27-1 1-37 202h-2l-89-184-1-1-203 28c-1 0-2-1-1-2l148-142 1-1-90-185c0-1 1-2 2-1l181 97h1L113 95Z" fill="#1B1B1B"/><path d="m91 137 1 1-30 167v2l151 80c1 1 0 2-1 2L43 412l-1 1-30 168h-2l-74-153-1-1-169 23c-1 0-2-1-1-2l123-118v-1l-74-154 2-1 150 81h1L91 137Z" fill="#010101"/><path d="M66 182c1-1 2 0 2 1L44 314l1 1 117 63v2L30 398l-1 1L5 530H3l-58-120h-1l-132 18-1-2 97-92v-1l-58-121 1-1 118 63h1l96-92Z" fill="#1B1B1B"/><path d="M37 236c1-1 2 0 2 1l-16 89v1l80 42v2l-90 12-1 1-16 89h-2l-39-81-1-1-90 13v-2l65-63v-1l-39-81c-1-1 0-2 1-1l80 42h1l65-62Z" fill="#010101"/><path d="M5 296c0-1 2 0 1 1l-7 40 1 1 35 19v2l-40 5-1 1-7 40h-2l-18-36-1-1-40 6-1-2 30-28v-1l-18-37 2-1 35 19h2l29-28Z" fill="#1B1B1B"/><path d="m-20 344-1 3 3 1-3 1v2l-2-2h-2l2-2-1-2 2 1 2-2Z" fill="#010101"/><path d="m1232 1525-2-1-13-344-1-1-331-94v-2l323-119 1-1-13-344 2-1 212 271 2 1 323-119c1-1 2 0 1 1l-192 286v2l213 270c1 1 0 2-1 2l-331-94h-1l-192 287Z" fill="#1B1B1B"/><path d="m1247 1470-1-1-12-303-1-1-291-82-1-2 285-105 1-1-12-303h2l188 238h1l284-104c1-1 2 0 1 1l-168 252v1l187 239c1 1 0 2-1 1l-292-82h-1l-169 252Z" fill="#010101"/><path d="M1265 1406h-1l-10-255-1-1-245-70v-2l239-88 1-1-10-255h2l158 200 1 1 239-88c1-1 2 0 2 1l-143 212v1l158 201c1 1 0 2-1 2l-245-70h-2l-142 212Z" fill="#1B1B1B"/><path d="m1281 1350-1-1-8-212-1-1-204-58-1-2 200-73v-1l-8-212 2-1 131 167h2l199-73c1 0 2 1 1 2l-118 176v1l131 167c1 1 0 2-1 2l-204-58h-1l-119 177Z" fill="#010101"/><path d="M1299 1288h-2l-6-166-1-1-160-45v-2l156-58 1-1-7-165 2-1 103 130 1 1 156-57c1-1 2 0 1 1l-92 138v1l102 131-1 1-160-45h-1l-92 138Z" fill="#1B1B1B"/><path d="m1319 1216-1-1-5-113v-1l-109-30v-2l106-39 1-1-5-113 2-1 70 89h1l106-39c1 0 2 1 1 2l-63 94v1l70 89-1 1-109-31-1 1-63 94Z" fill="#010101"/><path d="M1343 1134c-1 1-2 0-2-1l-2-51-1-1-49-14v-2l48-17 1-1-2-51 1-1 32 40 1 1 48-18c1 0 2 1 1 2l-28 42v1l31 40c1 1 0 2-1 2l-49-14h-1l-28 43Z" fill="#1B1B1B"/><path d="M1360 1068v-3l-3-1 3-1v-4l2 3 3-1-2 3 2 2-3-1-2 3Z" fill="#010101"/></svg>