<svg width="88" height="99" viewBox="0 0 88 99" fill="none" xmlns="http://www.w3.org/2000/svg">
<path d="M64.8059 47.4243H67.516L67.1637 50.7243H64.463L64.8059 47.4243ZM87.6856 28.9115V70.2529C87.5936 72.8638 86.2617 75.1977 83.9218 76.7484L47.9876 97.4189C45.9177 98.6099 42.5299 98.6099 40.4599 97.4189L4.52581 76.7484C2.34492 75.3238 0.923009 73.0266 0.761963 70.2529V28.9115C0.761963 26.5299 2.45554 23.6068 4.52581 22.4161L40.4599 1.74552C42.5299 0.554554 45.9177 0.554554 47.9876 1.74552L83.9218 22.4161C86.0954 23.8781 87.6016 26.4056 87.6856 28.9115ZM69.3163 64.0246L56.7769 56.7953C48.4123 70.1362 29.9391 63.6168 29.7365 49.5824C30.4111 34.3546 49.2064 29.8942 56.776 42.3686L69.3155 35.139C52.9737 8.94635 15.079 21.3935 15.2492 49.5824C15.9756 79.9724 54.9144 88.9346 69.3163 64.0246ZM72.3099 45.1265H70.1601L70.5476 41.3971H68.1595L67.7613 45.1265H65.0446L65.4321 41.3971H63.044L62.6459 45.1265H60.3693V47.4243H62.4006L62.0483 50.7243H59.7007V53.0222H61.8029L61.3675 57.1011H63.8004L64.2242 53.0222H66.9184L66.4829 57.1011H68.9159L69.3397 53.0222H71.6412V50.7243H69.5784L69.9213 47.4243H72.3099V45.1265Z" fill="white"/>
</svg>
