<svg width="102" height="102" viewBox="0 0 102 102" fill="none" xmlns="http://www.w3.org/2000/svg">
<path fill-rule="evenodd" clip-rule="evenodd" d="M84.5492 93.7954C95.2443 84.4467 102 70.7038 102 55.3829C102 27.2163 79.1665 4.38287 51 4.38287C22.8335 4.38287 0 27.2163 0 55.3829C0 70.2561 6.36669 83.6422 16.5234 92.9647L16.5704 92.6368L83.5013 70.7227L84.5492 93.7954Z" fill="#333333"/>
<path d="M37.8346 10.5071L28.7871 9.16412L30.1424 8.74713C30.959 8.49584 31.7252 8.10266 32.4053 7.58561L32.6181 7.42402C33.4379 6.80089 34.0903 5.98387 34.5164 5.04635C34.7465 4.53991 34.9079 4.00489 34.9958 3.45559L35.097 2.82295C35.2059 2.14112 35.2004 1.44587 35.0804 0.765886C35.0294 0.477045 35.3173 0.245572 35.5884 0.357248L35.9586 0.509689C36.423 0.700905 36.8722 0.927289 37.3021 1.18687L38.8407 2.11586C40.8855 3.3504 42.6778 4.96106 44.123 6.86268L45.1462 8.20889C45.5273 8.71046 45.9763 9.15665 46.4803 9.53465C47.0332 9.94926 47.646 10.2772 48.2976 10.5072L49.0078 10.7579L45.2772 10.9071C42.7892 11.0066 40.2976 10.8727 37.8346 10.5071Z" fill="#CCCCCC"/>
<path d="M35.5249 18.5286L38.2082 13.6235C38.2345 13.5754 38.2361 13.5176 38.2125 13.4681L37.2977 11.542C36.7234 10.333 35.5046 9.56256 34.166 9.56256L33.913 9.55383C32.1613 9.49343 30.4215 9.2404 28.725 8.79935L28.3895 8.71209C26.9983 8.35037 25.6486 7.84394 24.3631 7.20108L23.7959 6.91753C22.9418 6.49054 22.133 5.97901 21.3812 5.3906L20.6291 4.80208C20.4056 4.62721 20.0819 4.67186 19.914 4.90068C19.397 5.60575 19.0728 6.43353 18.9735 7.30224L18.8368 8.49815C18.7635 9.13969 18.7554 9.78702 18.8125 10.4302L19.1455 14.1764C19.3933 16.9636 20.3552 19.6398 21.9386 21.947L22.2776 22.4411C22.7641 23.1499 23.3311 23.7999 23.9672 24.3783C24.0569 24.4597 24.171 24.5099 24.2919 24.5207C28.8925 24.9335 33.3082 22.5811 35.5249 18.5286Z" fill="#CCCCCC"/>
<path d="M25.3761 24.6111L28.5632 23.2316C29.9701 22.6227 30.3984 20.8338 29.4198 19.6536C28.6243 18.6943 27.2093 18.5434 26.2293 19.3134L25.4735 19.9071C25.2924 20.0494 25.1269 20.2104 24.9794 20.3873L23.1618 22.5684C22.9066 22.8748 22.9269 23.3254 23.209 23.6075L23.7704 24.2492C23.8604 24.352 23.9652 24.4412 24.0812 24.5137C24.4706 24.7572 24.9547 24.7934 25.3761 24.6111Z" fill="#EDEDED"/>
<path d="M29.482 8.93376L29.3848 8.9649L29.676 9.05756C30.9375 9.45892 32.2457 9.69404 33.568 9.75701C33.6341 9.76016 33.7004 9.75249 33.7642 9.73426L34.3652 9.56256L34.6641 9.46295L32.7553 9.04801C32.5041 8.99341 32.2699 8.87898 32.0724 8.7144C31.9184 8.58601 31.9194 8.349 32.0746 8.22197L32.3577 7.9904C32.6958 7.71375 32.9693 7.36637 33.1588 6.97271C32.0611 7.84214 30.8156 8.50646 29.482 8.93376Z" fill="#B2B2B2"/>
<path d="M40.3968 43.7142L14.4016 90.185C14.2726 90.4157 13.959 90.4591 13.7722 90.2723L13.248 89.7481L11.0566 87.2579L9.65988 85.4504C8.33545 83.7363 7.15299 81.9172 6.12426 80.0111L5.92544 79.6427C4.83267 77.6179 3.91734 75.5022 3.18973 73.3193L2.49023 71.2208C1.43939 67.4115 1.1982 63.4243 1.78218 59.5161L1.80684 59.3511C2.06271 57.6386 2.47099 55.9526 3.02683 54.3129L4.18359 50.9005L5.04689 49.0846C6.3857 46.2684 8.23158 43.723 10.4922 41.5752L11.5889 40.5335C13.8562 38.3796 16.6136 36.8095 19.623 35.959C18.9192 36.1579 18.2008 36.3009 17.4745 36.3868L16.0371 36.5567L14.9414 36.6563L13.7461 36.8555L12.5508 36.9673L11.7539 37.0547L11.1799 37.0906C10.9954 37.1022 10.9087 36.8669 11.0566 36.7559L11.859 36.3714C14.4447 35.1325 16.5703 33.1046 17.9297 30.5801L18.8157 29.198C19.8723 27.5496 21.278 26.1535 22.9333 25.108L23.2753 24.892C23.8933 24.5018 24.5529 24.182 25.242 23.9388L28.3779 22.8319C28.956 22.6279 29.4226 22.191 29.6643 21.6274L29.7121 21.5157C29.824 21.2541 29.8693 20.9688 29.8436 20.6855C29.8047 20.2584 29.6071 19.8615 29.2897 19.573L28.7385 19.0718C28.7046 19.041 28.6736 19.007 28.6461 18.9703L25.1016 14.2442L22.2733 10.3458C21.7137 9.57435 21.3879 8.65808 21.3351 7.70648C21.3266 7.55569 21.483 7.45114 21.6192 7.51648L24.6794 8.98538C27.3276 10.2565 30.347 10.5238 33.1773 9.73759C33.8353 9.55483 34.5075 9.42793 35.1868 9.35826L36.5915 9.21418C40.1239 8.8519 43.6927 9.14527 47.1184 10.0796L47.4141 10.1602L50.7605 11.3649C54.9583 12.8761 58.2848 16.1482 59.8652 20.3204L60.5669 23.0564C60.7625 23.82 61.039 24.5607 61.3916 25.2658C62.2202 26.9229 63.4502 28.3467 64.9694 29.4073L66.755 30.6538C67.5397 31.2017 68.3633 31.6914 69.2192 32.1195L73.1709 34.0954C73.348 34.1838 73.4009 34.4115 73.2812 34.5691C72.1913 36.0031 70.7521 37.1334 69.1008 37.8526L66.8122 38.8493C65.901 39.2462 64.9614 39.5749 64.0014 39.8329L62.32 40.2845C59.9632 40.9176 57.5336 41.2383 55.0931 41.2383H51.0663C50.2326 41.2383 49.4065 41.0816 48.6309 40.776C45.5376 39.5573 42.0198 40.8126 40.3968 43.7142Z" fill="white"/>
<path d="M54.0251 26.9575L55.7787 26.9779C56.0167 26.9807 56.0705 26.6452 55.8434 26.5734C55.4707 26.4557 55.1085 26.3065 54.761 26.1276L53.3922 25.4224C52.4643 24.9444 51.5915 24.3661 50.7896 23.6977L50.5203 23.4734C49.9123 22.9666 49.3604 22.3958 48.8743 21.7711L48.5632 21.3708C48.4568 21.234 48.2376 21.3175 48.2492 21.4904C48.4524 24.541 50.9679 26.9221 54.0251 26.9575Z" fill="#666666"/>
<path d="M16.3804 90.9225L46.0819 64.4274C48.8817 61.9298 51.3148 59.0491 53.3089 55.871L53.4902 55.5821C54.4672 53.6282 54.8842 51.4417 54.6949 49.2655L54.4345 46.2702C54.2744 44.4276 53.5137 42.6887 52.2696 41.32C52.2214 41.267 52.1575 41.2306 52.0871 41.2162L47.3145 40.2422C43.8514 39.1967 40.18 39.0459 36.6429 39.804L36.457 39.8438L33.6799 40.4931C25.5807 42.3864 18.4425 47.1521 13.589 53.9071L13.4666 54.0774C12.1294 55.9385 10.9933 57.9363 10.0776 60.037L9.91412 60.4121C7.60107 65.7185 6.82143 71.567 7.66363 77.2939L7.93909 79.167C8.22277 81.096 8.80409 82.9695 9.66233 84.7202C10.455 86.3373 11.4753 87.8322 12.6921 89.1598L14.2078 90.8133C14.7803 91.4377 15.7482 91.4863 16.3804 90.9225Z" fill="#CCCCCC"/>
<path d="M42.3836 55.5538L42.2876 55.6086C39.7812 57.0408 38.4329 59.7442 38.5648 62.6279C38.6022 63.448 39.424 64.1993 40.2139 63.9756L41.6692 63.5632C43.5506 63.0301 45.293 62.0928 46.7744 60.8164L51 57.1758L52.2535 56.2481C59.5407 50.8544 68.6972 48.6319 77.6463 50.0846C77.9224 50.1295 77.9312 50.5233 77.6575 50.5805L76.5996 50.8008L76.1201 50.9686C75.1353 51.3132 74.2799 51.9515 73.6691 52.7974C73.5544 52.9562 73.7073 53.1696 73.8946 53.112L74.2415 53.0052C76.1946 52.4044 78.2434 52.1762 80.2808 52.333L81.082 52.3946C85.4336 52.5838 89.4719 54.7107 92.0897 58.1919L93.0708 59.4967C95.9788 63.3642 97.2094 68.2385 96.4854 73.0227L96.1073 75.5213C95.5925 78.9232 94.3536 82.175 92.4742 85.0569L92.3379 85.2657L90.2461 88.0547L87.9551 90.6446L85.8563 92.6595C83.94 94.4991 81.8444 96.1424 79.6012 97.565L78.8906 98.0157L77.531 98.6631C77.1807 98.8299 76.8885 98.35 77.1973 98.1153L79.0898 96.3223L79.4789 95.9137C80.5306 94.8094 81.2866 93.4576 81.6769 91.9835L81.8568 91.3038C81.9377 90.9984 81.9785 90.6792 81.9785 90.3633C81.9785 88.6343 80.7541 87.118 79.0572 86.7859C78.0049 86.5799 76.9154 86.8519 76.083 87.528L74.209 89.0508L70.9008 91.7576C68.7295 93.5341 66.3767 95.0762 63.8815 96.3586L60.4629 98.1153L54.6855 100.307L53.4727 100.637C51.363 101.213 49.2094 101.614 47.034 101.836L45.4219 102H40.2422L33.3691 101.253L29.6501 100.448C27.6884 100.024 25.7901 99.3469 24.0023 98.4346C22.5478 97.6925 21.1756 96.7992 19.9081 95.7695L17.0332 93.4336C13.5479 90.7721 11.3644 86.7495 11.0317 82.3766L10.8574 80.086L11.0625 76.863C11.3822 71.8399 13.306 67.0523 16.5509 63.2048C17.863 61.6491 19.3716 60.2705 21.0387 59.1033L21.6505 58.6752C24.1967 56.8927 27.038 55.5743 30.0432 54.7804L32.0637 54.2467C34.691 53.5526 37.4436 53.4793 40.1041 54.0322L42.2119 54.47C42.7408 54.58 42.8525 55.2858 42.3836 55.5538Z" fill="#5E5E5E"/>
</svg>
