<svg width="104" height="99" viewBox="0 0 104 99" fill="none" xmlns="http://www.w3.org/2000/svg">
<path fill-rule="evenodd" clip-rule="evenodd" d="M96.4495 68.1182V74.2165C96.4495 74.8198 96.0651 75.352 95.4946 75.5345L85.9394 78.6378C85.5196 78.7785 85.063 78.7027 84.7093 78.4398C84.3525 78.1799 84.1403 77.7637 84.1403 77.3244V70.6646L75.1941 72.3786V79.156C75.1941 79.8475 74.6836 80.4307 74.0024 80.5251L61.0705 82.3072C61.0105 82.3119 60.9459 82.3196 60.8844 82.3196C60.5554 82.3196 60.2325 82.1989 59.9803 81.9793C59.6804 81.7132 59.5097 81.3357 59.5097 80.9335V73.7586L52.8347 73.7864V73.7879L52.3457 73.7864L51.8552 73.7879V73.7864L45.1816 73.7586V80.9335C45.1816 81.3357 45.0094 81.7132 44.7095 81.9793C44.4574 82.1989 44.1345 82.3196 43.8069 82.3196C43.7439 82.3196 43.6808 82.3119 43.6178 82.3072L30.6859 80.5251C30.0062 80.4307 29.4957 79.8475 29.4957 79.156V72.3786L20.5479 70.6646V77.3244C20.5479 77.7637 20.3373 78.1799 19.9821 78.4398C19.6253 78.7027 19.1686 78.7785 18.7489 78.6378L9.19216 75.5345C8.62475 75.352 8.24033 74.8198 8.24033 74.2165V68.1182L2.34025 66.1226C2.04809 67.3772 1.88663 68.6628 1.88663 69.9607C1.88663 85.8962 24.2015 98.1964 51.7814 98.2846H51.8152H51.8506C79.4304 98.1964 101.745 85.8962 101.745 69.9607C101.745 68.7757 101.61 67.6077 101.365 66.4552L96.4495 68.1182ZM6.72787 39.8599V64.6845L10.0539 65.8123C10.6136 66.001 10.9919 66.527 10.9919 67.1226V73.2115L17.7976 75.4206V68.9944C17.7976 68.5768 17.9791 68.19 18.2943 67.9286C18.6111 67.6625 19.0232 67.5557 19.4307 67.6315L31.1294 69.8778C31.7783 70 32.2488 70.5708 32.2488 71.2345V77.9453L42.4282 79.3438V72.3684C42.4282 71.9956 42.5759 71.646 42.8342 71.3861C43.091 71.1293 43.44 70.9854 43.8075 70.9854H43.8106L52.3463 71.0195L60.8789 70.9854C61.2556 70.987 61.5985 71.1293 61.8553 71.3861C62.1152 71.646 62.2613 71.9956 62.2613 72.3684V79.3438L72.4423 77.9453V71.2345C72.4423 70.5708 72.9097 70 73.5586 69.8778L85.2589 67.6315C85.6617 67.5557 86.0784 67.6625 86.3937 67.9286C86.7089 68.19 86.8934 68.5768 86.8934 68.9944V75.4206L93.6977 73.2115V67.1226C93.6977 66.527 94.0744 66.001 94.6341 65.8123L96.9022 65.0434V39.8599H96.9637C99.1733 37.0228 101.218 34.0324 103.179 30.8441C100.574 26.3841 97.385 22.3991 93.9744 18.7064C90.8114 20.3075 87.7391 22.1221 84.8375 24.0528C83.3859 22.6017 81.7499 21.4136 80.1445 20.1714C78.5653 18.8967 76.7878 17.9623 75.0994 16.8732C75.6022 13.1094 75.8513 9.40433 75.9513 5.53839C71.5981 3.33548 66.9558 1.87357 62.2613 0.824707C60.3868 3.99295 58.6723 7.42572 57.1808 10.7811C55.4094 10.4841 53.6303 10.3727 51.8496 10.3526V10.3495C51.8373 10.3495 51.8266 10.3526 51.8158 10.3526C51.8035 10.3526 51.7927 10.3495 51.782 10.3495V10.3526C49.9983 10.3727 48.2207 10.4841 46.4493 10.7811C44.9577 7.42572 43.2448 3.99295 41.3672 0.824707C36.6742 1.87356 32.032 3.33547 27.6803 5.53839C27.7787 9.40432 28.0278 13.1094 28.5322 16.8732C26.8423 17.9623 25.0647 18.8967 23.4855 20.1714C21.8817 21.4136 20.2441 22.6017 18.7925 24.0528C15.8894 22.1221 12.8186 20.3075 9.65562 18.7064C6.24504 22.3991 3.05588 26.3841 0.45105 30.8441C2.41159 34.0324 4.45671 37.0228 6.66636 39.8599H6.72787ZM38.8338 51.7735C38.8338 57.3597 34.3345 61.8862 28.7819 61.8862C23.234 61.8862 18.7332 57.3597 18.7332 51.7735C18.7332 46.1904 23.234 41.667 28.7819 41.667C34.3345 41.667 38.8338 46.1904 38.8338 51.7735ZM36.4153 52.3733C36.4153 56.0798 33.4306 59.0826 29.7433 59.0826C26.059 59.0826 23.0713 56.0798 23.0713 52.3733C23.0713 48.6667 26.059 45.6609 29.7433 45.6609C33.4306 45.6609 36.4153 48.6667 36.4153 52.3733ZM52.425 62.8065C50.6382 62.8065 49.1897 61.4822 49.1897 59.8486V50.5388C49.1897 48.9083 50.6382 47.581 52.425 47.581C54.2118 47.581 55.6634 48.9083 55.6634 50.5388V59.8486C55.6634 61.4822 54.2118 62.8065 52.425 62.8065ZM68.4371 52.3733C68.4371 56.0798 71.4217 59.0826 75.1045 59.0826C78.7918 59.0826 81.7765 56.0798 81.7765 52.3733C81.7765 48.6667 78.7918 45.6609 75.1045 45.6609C71.4217 45.6609 68.4371 48.6667 68.4371 52.3733ZM66.018 51.7735C66.018 57.3597 70.5172 61.8862 76.0698 61.8862C81.6193 61.8862 86.1186 57.3597 86.1186 51.7735C86.1186 46.1904 81.6193 41.667 76.0698 41.667C70.5172 41.667 66.018 46.1904 66.018 51.7735Z" fill="white"/>
</svg>
