<svg width="98" height="99" viewBox="0 0 98 99" fill="none" xmlns="http://www.w3.org/2000/svg">
<path d="M0.310181 0.51001V98.4637H97.77V0.51001H0.310181ZM53.3475 76.9052C53.3475 86.4382 47.7783 90.7892 39.6639 90.7892C32.3327 90.7892 28.0906 86.9848 25.9151 82.3713L33.3769 77.8454C34.8127 80.4035 36.118 82.5681 39.2724 82.5681C42.2745 82.5681 44.1889 81.3874 44.1889 76.774V45.4856H53.3475V76.9052ZM75.0149 90.7892C66.5089 90.7892 61.005 86.7224 58.3293 81.3874L65.791 77.0582C67.7489 80.2723 70.3159 82.6556 74.8191 82.6556C78.6044 82.6556 81.0409 80.7534 81.0409 78.1077C81.0409 74.9592 78.5609 73.8441 74.3623 71.9856L72.078 71.0017C65.4647 68.1812 61.0921 64.6172 61.0921 57.1176C61.0921 50.2084 66.3349 44.9609 74.4928 44.9609C80.323 44.9609 84.4998 46.9943 87.5019 52.3293L80.3665 56.9209C78.8002 54.1003 77.1033 52.9852 74.471 52.9852C71.7952 52.9852 70.0984 54.6907 70.0984 56.9209C70.0984 59.6758 71.7952 60.7909 75.7328 62.5182L78.017 63.5021C85.8051 66.8474 90.1777 70.2802 90.1777 77.9765C90.1777 86.2414 83.6949 90.7892 75.0149 90.7892Z" fill="white"/>
</svg>
