<svg width="72" height="99" viewBox="0 0 72 99" fill="none" xmlns="http://www.w3.org/2000/svg">
<path d="M23.6948 76.2589C23.6948 76.2589 20.0068 78.4304 26.3132 79.1583C33.9542 80.0477 37.8622 79.9228 46.2746 78.3025C46.2746 78.3025 48.4831 79.7157 51.5775 80.937C32.7008 89.1085 8.8616 80.4467 23.6918 76.2589H23.6948ZM21.3838 65.5991C21.3838 65.5991 17.2409 68.6904 23.5502 69.3391C31.7306 70.195 38.1604 70.2772 49.3177 68.1057C49.3177 68.1057 50.8574 69.6772 53.292 70.5452C30.4742 77.2853 5.04709 71.0691 21.3838 65.5991ZM40.827 47.5018C45.4701 52.9109 39.6007 57.7809 39.6007 57.7809C39.6007 57.7809 51.4028 51.6073 45.9883 43.9018C40.9234 36.6988 37.0306 33.1323 58.0556 20.8035C58.0556 20.8035 25.0537 29.1334 40.824 47.5048L40.827 47.5018ZM65.781 84.1593C65.781 84.1593 68.5138 86.4253 62.783 88.1887C51.8909 91.5176 17.4458 92.5166 7.87332 88.3136C4.43845 86.806 10.8864 84.6984 12.9111 84.269C15.0293 83.7938 16.2375 83.8913 16.2375 83.8913C12.408 81.1624 -8.49354 89.2364 5.61655 91.5511C44.1112 97.8648 75.7753 88.7126 65.781 84.1593ZM25.4665 54.5433C25.4665 54.5433 7.93961 58.7463 19.2506 60.2692C24.0383 60.9179 33.5656 60.7778 42.448 60.0164C49.6944 59.3951 56.9799 58.0793 56.9799 58.0793C56.9799 58.0793 54.4218 59.188 52.5688 60.4763C34.7708 65.2031 0.391931 62.9981 10.2928 58.1616C18.657 54.0834 25.4665 54.5433 25.4665 54.5433ZM56.8986 72.3087C74.9768 62.791 66.6126 53.6692 60.7914 54.9088C59.3602 55.1921 58.7184 55.4662 58.7184 55.4662C58.7184 55.4662 59.2367 54.6225 60.2581 54.2601C71.8071 50.1515 80.6896 66.3605 56.537 72.7868C56.537 72.7716 56.8232 72.531 56.8986 72.3087ZM45.9913 0.894043C45.9913 0.894043 56.0067 11.0148 36.4822 26.5903C20.8385 39.0897 32.9177 46.2135 36.4822 54.3515C27.3496 46.0216 20.6486 38.6968 25.1381 31.8745C31.7427 21.833 50.0258 16.9782 45.9913 0.894043ZM27.2382 98.0536C44.5963 99.1622 71.2557 97.4201 71.9035 89.1237C71.9035 89.1237 70.6772 92.2638 57.5403 94.7674C42.7282 97.5907 24.4451 97.2557 13.6011 95.4496C13.6011 95.4496 15.8308 97.3044 27.2351 98.0536H27.2382Z" fill="white"/>
</svg>
