<svg width="88" height="90" viewBox="0 0 88 90" fill="none" xmlns="http://www.w3.org/2000/svg">
<path d="M87.2806 20.5837C87.2669 20.543 87.2505 20.5033 87.2317 20.4647C87.2067 20.3895 87.1757 20.3164 87.1391 20.2461C87.1107 20.2024 87.0792 20.1609 87.0447 20.1219C87.0062 20.0645 86.9642 20.0096 86.9188 19.9575C86.8786 19.919 86.8279 19.8875 86.7842 19.8525C86.7344 19.8096 86.6818 19.7698 86.6269 19.7336L69.8019 10.0397C69.5893 9.91688 69.3482 9.85222 69.1027 9.85222C68.8573 9.85222 68.6161 9.91688 68.4036 10.0397L51.575 19.7388C51.521 19.7755 51.4696 19.8158 51.4212 19.8595C51.3736 19.8916 51.328 19.9266 51.2849 19.9645C51.2391 20.0156 51.1971 20.07 51.159 20.1271C51.1293 20.1691 51.0909 20.2059 51.0647 20.2513C51.0293 20.322 50.9989 20.3951 50.9738 20.47C50.9598 20.5102 50.9371 20.5469 50.9248 20.5889C50.8928 20.7076 50.8763 20.8299 50.8759 20.9528V39.361L36.8544 47.4404V11.4198C36.8547 11.2963 36.8383 11.1733 36.8055 11.0542C36.795 11.0122 36.7705 10.9755 36.7565 10.9353C36.7321 10.8606 36.7017 10.7881 36.6657 10.7184C36.6412 10.6729 36.601 10.6362 36.5713 10.5924C36.5328 10.535 36.4908 10.4801 36.4454 10.428C36.4018 10.3907 36.3563 10.3557 36.3091 10.3231C36.2601 10.2805 36.2088 10.2408 36.1553 10.2041L19.325 0.510229C19.1124 0.387412 18.8713 0.322754 18.6258 0.322754C18.3804 0.322754 18.1393 0.387412 17.9267 0.510229L1.09989 10.2041C1.04526 10.2399 0.9938 10.2802 0.946077 10.3248C0.897874 10.3568 0.851753 10.3919 0.807995 10.4298C0.762787 10.4809 0.721314 10.5353 0.683896 10.5924C0.652434 10.6362 0.613981 10.6729 0.587763 10.7184C0.551945 10.788 0.522123 10.8606 0.498621 10.9353C0.479531 10.9733 0.462608 11.0125 0.447933 11.0525C0.415777 11.1723 0.399325 11.2957 0.398992 11.4198V69.0899C0.398322 69.3361 0.462615 69.5782 0.585375 69.7917C0.708135 70.0051 0.885013 70.1824 1.09814 70.3055L34.7447 89.6933C34.8195 89.7311 34.8973 89.7626 34.9772 89.7878C35.0139 89.8018 35.0489 89.8228 35.0873 89.8332C35.3221 89.8962 35.5692 89.8962 35.804 89.8332C35.8389 89.8245 35.8686 89.8053 35.9001 89.7948C35.9845 89.7682 36.0664 89.7343 36.1448 89.6933L69.8019 70.3055C70.015 70.1824 70.1919 70.0051 70.3146 69.7917C70.4374 69.5782 70.5017 69.3361 70.501 69.0899V50.6781L86.6234 41.3883C86.8379 41.2644 87.0156 41.0858 87.1384 40.8707C87.2612 40.6555 87.3248 40.4116 87.3226 40.1639V20.9493C87.3236 20.8261 87.3095 20.7034 87.2806 20.5837ZM18.6241 3.34563L32.6403 11.418L18.6223 19.4957L4.60788 11.4198L18.6241 3.34563ZM34.0491 13.8406V49.0549L25.9162 53.7409L20.0276 57.1343V21.9253L28.1605 17.2393L34.0491 13.8406ZM34.0491 86.0428L3.20258 68.2782V13.8476L9.09118 17.2375L17.2223 21.9253V59.5639C17.2258 59.6168 17.2328 59.6694 17.2433 59.7213C17.2475 59.7907 17.2568 59.8597 17.2712 59.9277C17.289 59.9819 17.3112 60.0346 17.3377 60.0851C17.3571 60.1454 17.3817 60.2039 17.4111 60.2601C17.4434 60.3075 17.4784 60.3531 17.5159 60.3965C17.5509 60.4481 17.5895 60.4972 17.6313 60.5434C17.6715 60.5819 17.7222 60.6099 17.7659 60.6449C17.8136 60.6864 17.8638 60.7249 17.9162 60.7603L34.0299 69.8875L34.0491 86.0428ZM35.4474 67.4719L21.4539 59.5447L36.1518 51.0769L52.2777 41.7871L66.2834 49.856L56.0059 55.7262L35.4474 67.4719ZM67.6992 68.2712L36.8509 86.0515V69.905L59.6992 56.8562L67.6992 52.2821V68.2712ZM67.6992 47.4334L61.8106 44.0523L53.6777 39.3662V23.3754L59.5663 26.7687L67.6992 31.4583V47.4334ZM69.0975 29.0182L55.0795 20.9423L69.0975 12.8681L83.112 20.9405L69.0975 29.0182ZM70.4958 47.4334V31.4583L78.6461 26.7687L84.533 23.3754V39.361L70.4958 47.4334Z" fill="white"/>
</svg>
