<svg width="101" height="101" viewBox="0 0 101 101" fill="none" xmlns="http://www.w3.org/2000/svg">
<path d="M75.0378 93.8441C74.6655 94.0412 74.6968 94.1038 75.0534 93.9224C75.1691 93.8754 75.2661 93.8097 75.3505 93.7315C75.3505 93.6659 75.3505 93.6658 75.0378 93.8441ZM75.7884 93.4375C75.6101 93.5845 75.6101 93.5845 75.8228 93.4876C75.9354 93.4219 76.0355 93.3593 76.0355 93.3405C76.0355 93.2561 75.9855 93.2749 75.7884 93.4375ZM76.2764 93.1435C76.0981 93.2905 76.0981 93.2905 76.3108 93.1935C76.4265 93.1278 76.5235 93.059 76.5235 93.0434C76.5235 92.9652 76.4734 92.9808 76.2764 93.1435ZM76.7706 92.8526C76.5923 92.9996 76.5923 92.9996 76.7987 92.8995C76.9145 92.8369 77.0114 92.7712 77.0114 92.7525C77.0114 92.6743 76.9614 92.6899 76.7706 92.8526ZM77.4368 92.4115C77.0959 92.6399 76.977 92.7869 77.2898 92.6242C77.4994 92.496 77.8559 92.2145 77.7934 92.2145C77.6589 92.2645 77.5463 92.349 77.4337 92.4115H77.4368ZM47.5253 0.0229909C47.297 0.0386309 46.612 0.101191 46.0114 0.151239C31.786 1.43997 18.4771 9.09731 10.0413 20.893C5.3777 27.3586 2.34996 34.8689 1.2083 42.7546C0.804806 45.5072 0.754761 46.3205 0.754761 50.0522C0.754761 53.7808 0.804806 54.5815 1.2083 57.3342C3.93264 76.1366 17.3073 91.9204 35.4362 97.7698C38.6985 98.8114 42.1173 99.5309 46.0114 99.9719C47.5253 100.135 54.0719 100.135 55.5857 99.9719C62.3168 99.2212 68.0001 97.5602 73.624 94.6918C74.4873 94.2539 74.6499 94.1382 74.5342 94.0412C71.7817 90.4096 69.0792 86.7749 66.3736 83.1089L58.3758 72.3079L48.3573 57.4655C45.0168 52.4983 41.6637 47.5435 38.2575 42.6263C38.2231 42.6263 38.1793 49.2233 38.1606 57.2685C38.1261 71.3601 38.1262 71.9325 37.9479 72.2578C37.7696 72.6488 37.4756 72.9742 37.0846 73.1556C36.7749 73.3026 36.4965 73.3339 35.0171 73.3339H33.3249L32.8839 73.0586C32.6086 72.8803 32.3803 72.6332 32.2333 72.3423L32.0206 71.9012L32.0363 52.2856L32.0707 32.6699L32.3803 32.2789C32.5774 32.038 32.8213 31.841 33.0966 31.694C33.5063 31.4969 33.669 31.4656 35.3611 31.4656C37.3473 31.4656 37.6757 31.5438 38.1981 32.1162C42.2518 38.1595 46.2929 44.2185 50.2684 50.2962C56.7712 60.1556 65.648 73.6091 70.0113 80.2092L77.9466 92.2176L78.3376 91.958C82.1505 89.4149 85.6192 86.387 88.6126 82.9337C94.9183 75.7143 99.0095 66.8339 100.395 57.3561C100.799 54.6034 100.849 53.787 100.849 50.0584C100.849 46.3267 100.799 45.5291 100.395 42.7765C97.6708 23.9741 84.2961 8.19019 66.1672 2.33771C62.7766 1.26481 59.2891 0.532854 55.7578 0.157495C54.81 0.0605268 48.3417 -0.0552091 47.5284 0.0292469L47.5253 0.0229909ZM68.0032 30.2926C68.4755 30.5178 68.8321 30.9432 68.9948 31.4312C69.0792 31.694 69.0949 37.1336 69.0792 49.3859L69.0448 66.9778L65.9514 62.2232L62.8392 57.4655V44.6939C62.8392 36.4141 62.8736 31.7722 62.9174 31.5438C63.0644 31.0215 63.421 30.5835 63.8964 30.3083C64.2842 30.1112 64.4344 30.0956 65.9827 30.0956C67.4308 30.0956 67.6779 30.1112 68.0032 30.2926Z" fill="white"/>
</svg>
