<svg width="120" height="63" viewBox="0 0 120 63" fill="none" xmlns="http://www.w3.org/2000/svg">
<path d="M35.452 22.7425H30.7897L28.2462 35.7256H32.385C35.131 35.7256 37.1756 35.2108 38.519 34.1861C39.8624 33.1565 40.7662 31.4453 41.2354 29.0429C41.6897 26.7384 41.4823 25.1107 40.623 24.1644C39.7587 23.2181 38.0399 22.7425 35.452 22.7425ZM60.0968 0.585938C27.3671 0.585938 0.830688 14.4418 0.830688 31.5336C0.830688 48.6254 27.3671 62.4861 60.0968 62.4861C92.8265 62.4861 119.363 48.6254 119.363 31.5336C119.363 14.4418 92.8265 0.585938 60.0968 0.585938ZM43.9962 37.1181C42.7071 38.3438 41.1564 39.2656 39.4673 39.8196C37.8078 40.3491 35.6891 40.6237 33.1209 40.6237H27.2881L25.6731 48.8656H18.8673L24.9421 17.8493H38.0301C41.9663 17.8493 44.8358 18.8741 46.6434 20.9284C48.451 22.9779 48.9943 25.8412 48.2732 29.5184C47.997 30.9735 47.4885 32.3754 46.7669 33.6713C46.0606 34.9215 45.1371 36.0737 43.9962 37.1181ZM63.8701 40.6237L66.5519 26.9003C66.863 25.3411 66.7445 24.2723 66.216 23.7084C65.6876 23.1397 64.5566 22.8553 62.8231 22.8553H57.4298L53.9529 40.6286H47.1966L53.2713 9.60743H60.0227L58.4077 17.8542H64.4232C68.2113 17.8542 70.819 18.5112 72.2563 19.8203C73.6935 21.1294 74.1231 23.2524 73.5552 26.1893L70.7301 40.6237H63.8701ZM101.39 29.5184C101.119 30.9747 100.61 32.3774 99.8841 33.6713C99.1779 34.9215 98.2543 36.0737 97.1135 37.1181C95.8237 38.3401 94.2769 39.2628 92.5845 39.8196C90.9251 40.3491 88.8063 40.6237 86.2332 40.6237H80.4053L78.7903 48.8705H71.9846L78.0594 17.8542H91.1424C95.0787 17.8542 97.9481 18.879 99.7557 20.9333C101.563 22.9779 102.112 25.8412 101.39 29.5184ZM88.5742 22.7425H83.9169L81.3684 35.7256H85.5072C88.2581 35.7256 90.3028 35.2108 91.6412 34.1861C92.9846 33.1565 93.8884 31.4453 94.3625 29.0429C94.8169 26.7384 94.6045 25.1107 93.7452 24.1644C92.8858 23.2181 91.1572 22.7425 88.5742 22.7425Z" fill="white"/>
</svg>
