<svg width="85" height="86" viewBox="0 0 85 86" fill="none" xmlns="http://www.w3.org/2000/svg">
<path d="M65.6079 22.0756V31.1098C65.5704 34.4866 64.2251 37.7173 61.855 40.1227C59.4848 42.5282 56.2744 43.9211 52.8986 44.0086H32.5779C29.8682 44.0625 27.287 45.1741 25.3861 47.106C23.4852 49.0379 22.4155 51.6367 22.4055 54.347V73.7193C22.4055 79.2318 27.1999 82.4757 32.5779 84.0576C39.1935 86.1267 46.283 86.1267 52.8986 84.0576C58.0204 82.5747 63.0709 79.5903 63.0709 73.7193V65.963H42.75V63.3785H73.243C79.1558 63.3785 81.359 59.2541 83.4154 53.0639C85.5029 46.3298 85.5029 39.1215 83.4154 32.3875C81.9535 26.5012 79.1634 22.0729 73.243 22.0729L65.6079 22.0756ZM54.179 71.1332C54.9488 71.1213 55.7048 71.3389 56.3505 71.7582C56.9963 72.1775 57.5026 72.7795 57.8049 73.4876C58.1072 74.1957 58.1919 74.9778 58.0481 75.7342C57.9043 76.4906 57.5386 77.1871 56.9976 77.7349C56.4565 78.2827 55.7646 78.657 55.0101 78.8101C54.2555 78.9632 53.4724 78.8882 52.7607 78.5947C52.0489 78.3011 51.4406 77.8023 51.0133 77.1618C50.5861 76.5213 50.3592 75.7681 50.3616 74.9981C50.3582 74.4936 50.4544 73.9934 50.6444 73.5261C50.8345 73.0588 51.1148 72.6335 51.4693 72.2746C51.8239 71.9157 52.2456 71.6301 52.7106 71.4343C53.1755 71.2384 53.6745 71.1361 54.179 71.1332Z" fill="white"/>
<path d="M54.179 71.1332C54.9488 71.1213 55.7048 71.3389 56.3505 71.7582C56.9963 72.1775 57.5026 72.7795 57.8049 73.4876C58.1072 74.1957 58.1919 74.9778 58.0481 75.7342C57.9043 76.4906 57.5386 77.1871 56.9976 77.7349C56.4565 78.2827 55.7646 78.657 55.0101 78.8101C54.2555 78.9632 53.4724 78.8882 52.7607 78.5947C52.0489 78.3011 51.4406 77.8023 51.0133 77.1618C50.5861 76.5213 50.3592 75.7681 50.3616 74.9981C50.3582 74.4936 50.4544 73.9934 50.6444 73.5261C50.8345 73.0588 51.1148 72.6335 51.4693 72.2746C51.8239 71.9157 52.2456 71.6301 52.7106 71.4343C53.1755 71.2384 53.6745 71.1361 54.179 71.1332Z" fill="black"/>
<path d="M42.2995 0.329872C39.0414 0.333376 35.7894 0.611 32.5779 1.1598C23.9685 2.68079 22.4055 5.86437 22.4055 11.7351V19.4896H42.7503V22.0756H14.7705C11.776 22.0207 8.85845 23.0257 6.53296 24.913C4.20748 26.8003 2.62363 29.4485 2.06109 32.3902C0.151349 39.1501 0.151349 46.3068 2.06109 53.0666C3.50715 59.0896 6.96088 63.3812 12.873 63.3812H19.8682V54.0851C19.9425 50.7442 21.3075 47.5618 23.677 45.2053C26.0464 42.8489 29.2363 41.5015 32.5776 41.4457H52.8983C54.2452 41.4356 55.577 41.1601 56.8174 40.635C58.0578 40.1098 59.1825 39.3453 60.1273 38.3852C61.072 37.4251 61.8182 36.2881 62.3233 35.0394C62.8283 33.7907 63.0823 32.4546 63.0706 31.1077V11.7357C62.8998 9.05463 61.784 6.5209 59.9216 4.58471C58.0592 2.64851 55.5707 1.43523 52.8983 1.16041C49.3948 0.587621 45.8494 0.309799 42.2995 0.329872ZM31.2972 6.56669C32.066 6.5548 32.8211 6.77177 33.4663 7.19003C34.1115 7.60828 34.6178 8.20894 34.9208 8.91564C35.2238 9.62235 35.3099 10.4032 35.168 11.1589C35.0262 11.9146 34.6628 12.6111 34.1242 13.1599C33.5855 13.7086 32.8958 14.0847 32.1429 14.2406C31.3899 14.3964 30.6076 14.3248 29.8954 14.0349C29.1832 13.745 28.5733 13.2499 28.1432 12.6125C27.7131 11.9751 27.4822 11.2243 27.4798 10.4553C27.4723 9.43402 27.8698 8.45133 28.5853 7.72248C29.3008 6.99363 30.2759 6.57803 31.2972 6.56669Z" fill="white"/>
<path d="M31.2972 6.56669C32.066 6.5548 32.8211 6.77177 33.4663 7.19003C34.1115 7.60828 34.6178 8.20894 34.9208 8.91564C35.2238 9.62235 35.3099 10.4032 35.168 11.1589C35.0262 11.9146 34.6628 12.6111 34.1242 13.1599C33.5855 13.7086 32.8958 14.0847 32.1429 14.2406C31.3899 14.3964 30.6076 14.3248 29.8954 14.0349C29.1832 13.745 28.5733 13.2499 28.1432 12.6125C27.7131 11.9751 27.4822 11.2243 27.4798 10.4553C27.4723 9.43402 27.8698 8.45133 28.5853 7.72248C29.3008 6.99363 30.2759 6.57803 31.2972 6.56669Z" fill="black"/>
</svg>
