<svg width="110" height="98" viewBox="0 0 110 98" fill="none" xmlns="http://www.w3.org/2000/svg">
<path d="M89.3153 31.8727C88.1624 31.4811 87.0094 31.1113 85.8565 30.7633C86.0487 29.9584 86.2195 29.1535 86.3903 28.3487C89.0164 15.3837 87.287 4.96391 81.4584 1.52689C75.8433 -1.75785 66.684 1.65741 57.418 9.88014C56.5 10.685 55.6033 11.5334 54.7493 12.3818C54.1728 11.8162 53.575 11.2506 52.9772 10.7068C43.2629 1.91845 33.5272 -1.77961 27.6986 1.67916C22.1048 4.98566 20.4395 14.7964 22.788 27.0652C23.0229 28.2834 23.2791 29.4798 23.578 30.698C22.2116 31.0896 20.8665 31.5246 19.6068 31.9815C8.20582 36.0058 0.0286865 42.3578 0.0286865 48.9273C0.0286865 55.7143 8.73957 62.5231 20.5889 66.6562C21.5497 66.9825 22.5105 67.3088 23.4926 67.5916C23.1723 68.8968 22.8948 70.1802 22.6386 71.5071C20.3968 83.5802 22.1475 93.1516 27.7413 96.4364C33.5058 99.8299 43.1988 96.3494 52.6356 87.9309C53.3829 87.2565 54.1301 86.5604 54.8774 85.8208C55.8168 86.7562 56.7989 87.6481 57.781 88.5182C66.9189 96.5234 75.95 99.7646 81.5224 96.4799C87.287 93.0864 89.1658 82.7971 86.7319 70.2672C86.5397 69.3101 86.3262 68.3312 86.0914 67.3305C86.7746 67.1347 87.4364 66.9172 88.0983 66.6997C100.417 62.5448 109.342 55.823 109.342 48.9273C109.342 42.336 100.93 35.9406 89.3153 31.8727ZM60.4284 13.4042C68.3707 6.35611 75.7792 3.59345 79.1526 5.573C82.7607 7.68306 84.1485 16.2103 81.8854 27.4133C81.7359 28.1529 81.5865 28.8707 81.3943 29.5886C76.6546 28.5009 71.8508 27.7178 67.0256 27.2828C64.2501 23.2367 61.2184 19.3646 57.9305 15.7318C58.7631 14.9269 59.5744 14.1655 60.4284 13.4042ZM35.7262 60.2172C36.8151 62.1097 37.9253 64.0023 39.0996 65.8513C35.7689 65.4815 32.4597 64.9377 29.1931 64.2198C30.1325 61.0873 31.3067 57.8461 32.6732 54.5396C33.6553 56.4539 34.6587 58.3464 35.7262 60.2172ZM29.2571 34.048C32.3316 33.3519 35.5981 32.7863 38.9928 32.3513C37.8613 34.1568 36.751 36.0058 35.7049 37.8766C34.6587 39.7256 33.6339 41.6182 32.6732 43.5324C31.3281 40.2912 30.1965 37.1152 29.2571 34.048ZM35.1071 49.036C36.5162 46.0341 38.0534 43.0974 39.676 40.2042C41.2986 37.311 43.0494 34.5048 44.8855 31.7422C48.088 31.5029 51.3546 31.3724 54.6852 31.3724C58.0159 31.3724 61.3038 31.5029 64.485 31.7422C66.2997 34.4831 68.0291 37.2893 69.6731 40.1607C71.317 43.0321 72.8542 45.9688 74.3061 48.949C72.8756 51.951 71.3384 54.9094 69.6944 57.8243C68.0718 60.7175 66.3424 63.5237 64.5277 66.3081C61.3465 66.5474 58.0372 66.6562 54.6852 66.6562C51.3332 66.6562 48.088 66.5474 44.9495 66.3516C43.0921 63.589 41.3413 60.761 39.6974 57.8679C38.0534 54.9747 36.5375 52.038 35.1071 49.036ZM73.6656 60.1737C74.7544 58.2594 75.7792 56.3234 76.7827 54.3656C78.1491 57.5198 79.3447 60.7175 80.3909 64.0023C77.0816 64.7636 73.7296 65.351 70.3563 65.7425C71.5092 63.9153 72.598 62.0445 73.6656 60.1737ZM76.74 43.5324C75.7365 41.6182 74.7117 39.7039 73.6442 37.8331C72.598 35.9841 71.5092 34.1568 70.3776 32.3513C73.815 32.7863 77.1029 33.3737 80.1774 34.0915C79.1953 37.311 78.0424 40.4435 76.74 43.5324ZM54.7279 19.06C56.9697 21.5399 59.0834 24.1503 61.0476 26.8477C56.8202 26.6519 52.5716 26.6519 48.3442 26.8477C50.4365 24.0415 52.5929 21.4311 54.7279 19.06ZM29.9617 5.72527C33.5485 3.59345 41.5121 6.63891 49.9028 14.209C50.4365 14.6876 50.9703 15.2097 51.5254 15.7318C48.2161 19.3646 45.163 23.2367 42.3662 27.2828C37.541 27.7178 32.7586 28.4792 28.0188 29.5451C27.7413 28.4357 27.5064 27.3045 27.2716 26.1733C25.2646 15.6448 26.5883 7.70482 29.9617 5.72527ZM24.7309 63.0669C23.8342 62.8058 22.9588 62.5231 22.0835 62.2185C17.5359 60.761 12.3691 58.4552 8.63282 55.4315C6.47645 53.9088 5.02464 51.5594 4.61898 48.9273C4.61898 44.9464 11.3656 39.8561 21.1013 36.3974C22.3183 35.9623 23.5566 35.5708 24.7949 35.2009C26.2467 39.9214 27.9975 44.5549 30.0257 49.036C27.9761 53.5825 26.204 58.2812 24.7309 63.0669ZM49.6252 84.3851C46.1024 87.6698 42.0245 90.2802 37.5837 92.064C35.2138 93.2169 32.481 93.3257 30.0471 92.3468C26.6524 90.3455 25.2433 82.6666 27.1648 72.3338C27.3997 71.1156 27.6559 69.8974 27.9548 68.701C32.7372 69.7451 37.5624 70.463 42.4516 70.8328C45.2698 74.9007 48.3656 78.7945 51.6748 82.449C50.9916 83.1234 50.3084 83.776 49.6252 84.3851ZM54.856 79.099C52.6783 76.7062 50.5006 74.0523 48.3869 71.2026C50.4365 71.2896 52.5502 71.3331 54.6852 71.3331C56.8843 71.3331 59.0407 71.2896 61.1757 71.1808C59.2115 73.9435 57.0978 76.5757 54.856 79.099ZM82.7607 85.625C82.5686 88.2789 81.2876 90.7588 79.238 92.4338C75.8433 94.4351 68.6056 91.8247 60.7914 84.9942C59.8947 84.2111 58.998 83.3627 58.0799 82.4925C61.3465 78.8162 64.3569 74.9224 67.0897 70.8328C71.9789 70.4195 76.8467 69.6581 81.6505 68.5487C81.864 69.4406 82.0562 70.3325 82.227 71.2026C83.2732 75.9013 83.444 80.7958 82.7607 85.625ZM86.6465 62.2403C86.0487 62.436 85.4509 62.6318 84.8317 62.8058C83.3372 58.0636 81.5011 53.4302 79.3874 48.9273C81.437 44.4896 83.1664 39.9214 84.6182 35.2445C85.7284 35.5708 86.7959 35.9188 87.8207 36.2669C97.77 39.7474 104.751 44.9247 104.751 48.8838C104.751 53.1474 97.3002 58.651 86.6465 62.2403ZM54.6852 58.9773C60.0868 58.9773 64.4636 54.5178 64.4636 49.0143C64.4636 43.5107 60.0868 39.0513 54.6852 39.0513C49.2836 39.0513 44.9068 43.5107 44.9068 49.0143C44.9068 54.5178 49.2836 58.9773 54.6852 58.9773Z" fill="white"/>
</svg>
