<svg width="98" height="98" viewBox="0 0 98 98" fill="none" xmlns="http://www.w3.org/2000/svg">
<path d="M96.9309 48.017L92.8403 45.4837C92.8062 45.0858 92.7678 44.6882 92.7252 44.2911L96.2402 41.0135C96.4137 40.8489 96.5426 40.643 96.615 40.415C96.6874 40.1871 96.7008 39.9445 96.654 39.7099C96.6072 39.4754 96.5017 39.2565 96.3473 39.0738C96.193 38.8911 95.9949 38.7506 95.7715 38.6653L91.278 36.9833C91.167 36.5947 91.0491 36.208 90.9245 35.8236L93.7283 31.9291C93.8689 31.7345 93.9573 31.5071 93.9852 31.2686C94.0131 31.0302 93.9795 30.7885 93.8876 30.5667C93.7957 30.3449 93.6485 30.1503 93.4602 30.0015C93.2718 29.8527 93.0485 29.7546 92.8115 29.7166L88.0755 28.9475C87.8906 28.5895 87.7001 28.2344 87.504 27.8824L89.4938 23.5109C89.6994 23.0667 89.6541 22.5486 89.3828 22.1456C89.1115 21.7425 88.651 21.504 88.1618 21.5205L83.3518 21.6891C83.105 21.3765 82.8514 21.0694 82.5912 20.7679L83.6971 16.0838C83.7516 15.8502 83.7457 15.6066 83.6799 15.376C83.6141 15.1453 83.4906 14.9353 83.321 14.7657C83.1515 14.5961 82.9415 14.4725 82.7109 14.4067C82.4804 14.3409 82.2368 14.335 82.0033 14.3895L77.3207 15.4957C77.0151 15.2389 76.7067 14.9853 76.3957 14.7349L76.5643 9.92337C76.5758 9.68263 76.5248 9.44302 76.4164 9.22777C76.3081 9.01253 76.1459 8.82897 75.9457 8.6949C75.7455 8.56083 75.514 8.48081 75.2738 8.46259C75.0335 8.44437 74.7926 8.48858 74.5745 8.59093L70.2044 10.5855C69.8508 10.3922 69.4973 10.1989 69.1396 10.0138L68.3667 5.27219C68.3266 5.03632 68.2273 4.81448 68.0782 4.62742C67.9291 4.44035 67.735 4.29418 67.514 4.20257C67.2931 4.11095 67.0525 4.07689 66.8148 4.10357C66.5771 4.13025 66.3501 4.21679 66.1549 4.35511L62.2576 7.1598C61.8732 7.0365 61.4867 6.91996 61.0982 6.81024L59.4168 2.31534C59.3315 2.09189 59.191 1.89371 59.0083 1.73934C58.8257 1.58497 58.6069 1.47943 58.3724 1.43261C58.138 1.38578 57.8954 1.39918 57.6675 1.47157C57.4397 1.54395 57.2338 1.67296 57.0693 1.84652L53.7927 5.36677C53.396 5.32209 52.9985 5.2837 52.6005 5.25163L50.0681 1.15974C49.9421 0.955665 49.766 0.787202 49.5567 0.670362C49.3473 0.553522 49.1115 0.492188 48.8717 0.492188C48.6319 0.492187 48.3962 0.553522 48.1868 0.670362C47.9774 0.787202 47.8013 0.955665 47.6754 1.15974L45.1429 5.25163C44.7441 5.28452 44.3454 5.32565 43.9507 5.36677L40.67 1.84652C40.5065 1.67081 40.3008 1.53987 40.0725 1.46616C39.8442 1.39245 39.6007 1.37842 39.3654 1.42542C39.1301 1.47241 38.9108 1.57886 38.7282 1.73463C38.5457 1.8904 38.406 2.09031 38.3225 2.31534L36.6411 6.81024C36.2505 6.92128 35.8682 7.04054 35.4818 7.1598L31.5885 4.35511C31.3933 4.21679 31.1663 4.13025 30.9286 4.10357C30.6909 4.07689 30.4504 4.11095 30.2294 4.20257C30.0084 4.29418 29.8143 4.44035 29.6652 4.62742C29.5161 4.81448 29.4168 5.03632 29.3767 5.27219L28.6038 10.0138C28.2459 10.1987 27.8909 10.3893 27.539 10.5855L23.1689 8.59093C22.9506 8.49106 22.7104 8.44875 22.4711 8.46806C22.2318 8.48736 22.0015 8.56763 21.802 8.70121C21.6025 8.83479 21.4405 9.01724 21.3315 9.23117C21.2225 9.44511 21.17 9.68341 21.1791 9.92337L21.3477 14.7349C21.0352 14.9817 20.7269 15.2366 20.4227 15.4957L15.7401 14.3895C15.5066 14.335 15.2631 14.3409 15.0325 14.4067C14.8019 14.4725 14.5919 14.5961 14.4224 14.7657C14.2528 14.9353 14.1293 15.1453 14.0635 15.376C13.9977 15.6066 13.9918 15.8502 14.0463 16.0838L15.1481 20.7679C14.8932 21.0722 14.6383 21.3806 14.3916 21.6891L9.58161 21.5205C9.34173 21.5113 9.10351 21.5638 8.88964 21.6729C8.67577 21.7819 8.49338 21.944 8.35985 22.1435C8.22631 22.3431 8.14607 22.5735 8.12677 22.8128C8.10747 23.0522 8.14976 23.2925 8.24961 23.5109L10.2435 27.8824C10.0473 28.2343 9.85677 28.5894 9.67206 28.9475L4.93603 29.7166C4.70024 29.7567 4.47847 29.856 4.29146 30.0052C4.10446 30.1543 3.95834 30.3485 3.86675 30.5695C3.77517 30.7905 3.74112 31.0312 3.76779 31.269C3.79446 31.5067 3.88097 31.7338 4.01925 31.9291L6.82304 35.8236C6.69971 36.2101 6.5846 36.5926 6.46948 36.9833L1.97602 38.6653C1.75264 38.7506 1.55453 38.8911 1.4002 39.0738C1.24588 39.2565 1.14038 39.4754 1.09356 39.7099C1.04675 39.9445 1.06015 40.1871 1.13252 40.415C1.20488 40.643 1.33384 40.8489 1.50735 41.0135L5.02237 44.2911C4.97769 44.688 4.93932 45.0856 4.90725 45.4837L0.816677 48.017C0.610719 48.1414 0.440378 48.317 0.322144 48.5267C0.203909 48.7363 0.141785 48.973 0.141785 49.2137C0.141785 49.4544 0.203909 49.691 0.322144 49.9007C0.440378 50.1103 0.610719 50.2859 0.816677 50.4104L4.90725 52.9437C4.94014 53.3426 4.98125 53.7415 5.02237 54.1363L1.50735 57.418C1.33169 57.5815 1.20079 57.7873 1.12711 58.0157C1.05342 58.2441 1.0394 58.4876 1.08638 58.723C1.13336 58.9584 1.23977 59.1778 1.39549 59.3604C1.55121 59.543 1.75106 59.6827 1.97602 59.7662L6.46948 61.4482C6.58048 61.8389 6.69971 62.2255 6.82304 62.6079L4.01925 66.5024C3.87742 66.697 3.78807 66.9248 3.75978 67.1639C3.7315 67.403 3.76525 67.6454 3.85777 67.8677C3.95029 68.09 4.09848 68.2847 4.28805 68.4331C4.47762 68.5815 4.70219 68.6785 4.94014 68.7149L9.67617 69.4839C9.86117 69.8417 10.0503 70.1954 10.2476 70.549L8.25372 74.9206C8.15387 75.1389 8.11158 75.3793 8.13088 75.6186C8.15018 75.858 8.23042 76.0884 8.36396 76.2879C8.4975 76.4875 8.67988 76.6495 8.89375 76.7586C9.10762 76.8676 9.34584 76.9201 9.58572 76.911L14.3916 76.7424C14.6424 77.0549 14.8932 77.3634 15.1522 77.6677L14.0504 82.3559C13.9956 82.5893 14.0013 82.8329 14.067 83.0635C14.1328 83.2941 14.2564 83.5041 14.4261 83.6735C14.5958 83.8428 14.806 83.966 15.0367 84.0312C15.2674 84.0964 15.511 84.1015 15.7442 84.0461L20.4268 82.944C20.731 83.203 21.0393 83.4539 21.3518 83.7006L21.1832 88.5122C21.1725 88.7526 21.224 88.9917 21.3327 89.2064C21.4414 89.421 21.6036 89.604 21.8037 89.7376C22.0038 89.8712 22.235 89.9508 22.4749 89.9688C22.7147 89.9869 22.9552 89.9427 23.173 89.8405L27.5432 87.8501C27.8967 88.0475 28.2503 88.2367 28.6079 88.4217L29.3808 93.1593C29.4204 93.3955 29.5192 93.6178 29.6681 93.8054C29.817 93.993 30.011 94.1396 30.2321 94.2317C30.4531 94.3238 30.6939 94.3582 30.9319 94.3317C31.1698 94.3053 31.3972 94.2188 31.5926 94.0805L35.4859 91.2758C35.8723 91.3991 36.2546 91.5184 36.6452 91.6294L38.3267 96.1243C38.4092 96.3502 38.5484 96.551 38.7309 96.7075C38.9134 96.864 39.1331 96.9709 39.3688 97.018C39.6045 97.065 39.8484 97.0507 40.077 96.9763C40.3056 96.9019 40.5112 96.77 40.6741 96.5932L43.9548 93.077C44.3495 93.1223 44.7482 93.1593 45.147 93.1963L47.6795 97.2882C47.8062 97.4913 47.9825 97.6588 48.1918 97.775C48.4011 97.8911 48.6365 97.952 48.8758 97.952C49.1152 97.952 49.3506 97.8911 49.5599 97.775C49.7692 97.6588 49.9455 97.4913 50.0722 97.2882L52.6046 93.1963C53.0034 93.1593 53.4022 93.1223 53.7968 93.077L57.0734 96.5932C57.2379 96.7667 57.4438 96.8957 57.6717 96.9681C57.8996 97.0405 58.1421 97.0539 58.3765 97.0071C58.611 96.9603 58.8298 96.8547 59.0124 96.7003C59.1951 96.546 59.3356 96.3478 59.4209 96.1243L61.1023 91.6294C61.4929 91.5184 61.8793 91.3991 62.2617 91.2758L66.1549 94.0805C66.3494 94.2223 66.5771 94.3117 66.8162 94.34C67.0552 94.3683 67.2975 94.3345 67.5197 94.242C67.742 94.1494 67.9366 94.0012 68.085 93.8116C68.2333 93.6219 68.3303 93.3973 68.3667 93.1593L69.1396 88.4217C69.4973 88.2367 69.8508 88.0434 70.2044 87.8501L74.5745 89.8405C74.7926 89.939 75.0321 89.9804 75.2706 89.9608C75.509 89.9411 75.7386 89.8611 75.9376 89.7282C76.1366 89.5954 76.2985 89.414 76.4082 89.2013C76.5178 88.9886 76.5715 88.7514 76.5643 88.5122L76.3957 83.7006C76.7082 83.4539 77.0165 83.203 77.3166 82.944L81.9992 84.0461C82.2323 84.1003 82.4754 84.0944 82.7055 84.0287C82.9356 83.9631 83.1453 83.8399 83.3147 83.6709C83.4841 83.5018 83.6077 83.2924 83.6739 83.0623C83.7401 82.8323 83.7467 82.5892 83.693 82.3559L82.5912 77.6677C82.8461 77.3634 83.101 77.0549 83.3477 76.7424L88.1577 76.911C88.3984 76.9225 88.6379 76.8715 88.8531 76.7631C89.0682 76.6547 89.2517 76.4924 89.3858 76.2922C89.5198 76.0919 89.5998 75.8604 89.618 75.62C89.6362 75.3797 89.592 75.1388 89.4897 74.9206L87.4999 70.549C87.6931 70.1954 87.8864 69.8417 88.0714 69.4839L92.8074 68.7149C93.0432 68.6748 93.265 68.5755 93.452 68.4263C93.639 68.2771 93.7851 68.083 93.8767 67.8619C93.9683 67.6409 94.0023 67.4003 93.9756 67.1625C93.949 66.9247 93.8624 66.6976 93.7242 66.5024L90.9204 62.6079L91.2739 61.4482L95.7674 59.7662C95.9924 59.6827 96.1922 59.543 96.3479 59.3604C96.5036 59.1778 96.6101 58.9584 96.657 58.723C96.704 58.4876 96.69 58.2441 96.6163 58.0157C96.5426 57.7873 96.4117 57.5815 96.2361 57.418L92.7211 54.1363C92.7622 53.7415 92.8033 53.3426 92.8362 52.9437L96.9267 50.4104C97.1327 50.2859 97.303 50.1103 97.4213 49.9007C97.5395 49.691 97.6016 49.4544 97.6016 49.2137C97.6016 48.973 97.5395 48.7363 97.4213 48.5267C97.303 48.317 97.1368 48.1414 96.9309 48.017ZM69.5548 81.957C69.1826 81.8773 68.8297 81.7251 68.5162 81.509C68.2028 81.2929 67.935 81.0172 67.7281 80.6975C67.3102 80.052 67.1658 79.2669 67.3266 78.5149C67.4062 78.1425 67.5584 77.7895 67.7744 77.4759C67.9904 77.1624 68.2661 76.8945 68.5856 76.6875C69.2309 76.2695 70.0158 76.125 70.7676 76.2859C71.1399 76.3658 71.4927 76.5183 71.8061 76.7347C72.1194 76.951 72.3871 77.227 72.5938 77.5468C72.8005 77.8666 72.9422 78.224 73.0108 78.5986C73.0795 78.9733 73.0737 79.3577 72.9938 79.7301C72.9139 80.1024 72.7614 80.4554 72.5452 80.7689C72.3289 81.0823 72.053 81.3501 71.7333 81.5568C71.4136 81.7636 71.0563 81.9054 70.6818 81.974C70.3073 82.0427 69.9271 82.0369 69.5548 81.957ZM68.1653 72.5559C67.8262 72.4829 67.476 72.4776 67.1349 72.5402C66.7937 72.6029 66.4683 72.7323 66.1772 72.9211C65.8862 73.1098 65.6353 73.3542 65.4388 73.6401C65.2424 73.9261 65.1044 74.248 65.0326 74.5875L63.5813 81.3648C59.1002 83.4004 54.1257 84.5314 48.884 84.5314C43.7008 84.5389 38.5788 83.4103 33.8784 81.225L32.4272 74.4476C32.3554 74.1083 32.2174 73.7865 32.0209 73.5007C31.8244 73.2149 31.5733 72.9708 31.2822 72.7824C30.9911 72.594 30.6656 72.465 30.3245 72.4028C29.9834 72.3407 29.6333 72.3466 29.2945 72.4202L23.3128 73.7033C22.2013 72.5584 21.1684 71.3397 20.2212 70.0556H49.328C49.6569 70.0556 49.8789 69.998 49.8789 69.6978V59.3961C49.8789 59.0959 49.661 59.0383 49.328 59.0383H40.8139V52.5077H50.0228C50.8615 52.5077 54.5163 52.7463 55.6839 57.418C56.0498 58.8532 56.8514 63.5291 57.4023 65.026C57.9491 66.7039 60.1773 70.0556 62.5536 70.0556H77.0576C77.2343 70.053 77.4103 70.0352 77.5839 70.0021C76.5782 71.3688 75.4763 72.662 74.2867 73.8719L68.1653 72.5559ZM27.9049 81.8171C27.5327 81.8971 27.1483 81.9029 26.7739 81.8342C26.3994 81.7656 26.0421 81.6238 25.7223 81.417C25.4026 81.2102 25.1267 80.9425 24.9105 80.629C24.6942 80.3156 24.5418 79.9626 24.4619 79.5903C24.382 79.2179 24.3762 78.8334 24.4448 78.4588C24.5134 78.0842 24.6551 77.7268 24.8619 77.407C25.0686 77.0872 25.3363 76.8112 25.6496 76.5948C25.9629 76.3785 26.3158 76.226 26.688 76.1461C27.4398 75.9847 28.2249 76.1286 28.8706 76.5462C29.5163 76.9638 29.9697 77.6209 30.1311 78.373C30.2925 79.125 30.1486 79.9104 29.7311 80.5563C29.3136 81.2022 28.6567 81.6557 27.9049 81.8171ZM16.8624 37.0244C17.0311 37.3742 17.1278 37.7544 17.1468 38.1424C17.1658 38.5303 17.1066 38.9182 16.9728 39.2828C16.8391 39.6475 16.6334 39.9815 16.3681 40.2651C16.1027 40.5487 15.7832 40.7761 15.4283 40.9337C15.0734 41.0914 14.6905 41.1761 14.3022 41.1828C13.914 41.1896 13.5283 41.1182 13.1682 40.973C12.8081 40.8278 12.4808 40.6116 12.2058 40.3374C11.9308 40.0632 11.7136 39.7365 11.5673 39.3767C11.2835 38.6791 11.2823 37.8985 11.5638 37.2C11.8453 36.5015 12.3875 35.9399 13.0755 35.6343C13.7636 35.3286 14.5436 35.3027 15.2504 35.5622C15.9572 35.8217 16.5353 36.3461 16.8624 37.0244ZM13.4707 45.0724L19.7032 42.3007C20.0203 42.1599 20.3065 41.958 20.5455 41.7065C20.7845 41.4549 20.9715 41.1588 21.096 40.8349C21.2205 40.511 21.2799 40.1657 21.2709 39.8189C21.2619 39.472 21.1846 39.1303 21.0435 38.8133L19.7608 35.9099H24.8092V58.6682H14.626C13.3702 54.2514 12.9793 49.6335 13.4749 45.0683L13.4707 45.0724ZM40.818 42.8641V36.1567H52.839C53.4597 36.1567 57.2214 36.8763 57.2214 39.6893C57.2214 42.0251 54.3354 42.8641 51.9633 42.8641H40.818ZM84.5029 48.9011C84.5029 49.7894 84.47 50.6736 84.4042 51.5454H80.7494C80.3835 51.5454 80.2355 51.784 80.2355 52.1459V53.8237C80.2355 57.7758 78.0073 58.6353 76.0545 58.8532C74.1963 59.063 72.1366 58.076 71.8817 56.9369C70.784 50.7682 68.9587 49.4481 66.0727 47.1739C69.6535 44.8997 73.3782 41.544 73.3782 37.0532C73.3782 32.2046 70.0523 29.1491 67.787 27.648C64.6091 25.5507 61.09 25.1312 60.1403 25.1312H22.3467C27.5699 19.289 34.5742 15.334 42.2733 13.8795L46.7298 18.5554C46.9685 18.8067 47.2546 19.0084 47.5714 19.1488C47.8883 19.2892 48.2298 19.3656 48.5763 19.3737C48.9228 19.3817 49.2674 19.3212 49.5904 19.1956C49.9135 19.07 50.2085 18.8818 50.4586 18.6418L55.4413 13.8713C60.5218 14.8245 65.3343 16.8719 69.5447 19.8715C73.7552 22.8711 77.2628 26.7511 79.8244 31.2423L76.4122 38.9531C76.1294 39.5936 76.1116 40.32 76.3628 40.9735C76.614 41.627 77.1136 42.1544 77.7524 42.4405L84.322 45.3603C84.4371 46.5282 84.4947 47.7044 84.4947 48.9011H84.5029ZM46.7339 9.90691C47.009 9.64445 47.333 9.43875 47.6876 9.30156C48.0421 9.16437 48.4202 9.09838 48.8002 9.10735C49.1803 9.11633 49.5548 9.20009 49.9025 9.35386C50.2502 9.50763 50.5642 9.7284 50.8266 10.0036C51.0889 10.2787 51.2946 10.6029 51.4317 10.9575C51.5689 11.3122 51.6348 11.6904 51.6259 12.0705C51.6169 12.4507 51.5331 12.8254 51.3794 13.1732C51.2257 13.5209 51.005 13.835 50.7299 14.0975C50.1669 14.5834 49.4387 14.8343 48.6959 14.7982C47.9531 14.762 47.2527 14.4417 46.7394 13.9034C46.2261 13.3652 45.9393 12.6502 45.9383 11.9063C45.9373 11.1624 46.2221 10.4466 46.7339 9.90691ZM80.5973 37.1642C81.2428 35.7002 82.953 35.0422 84.4125 35.692C84.9371 35.9236 85.3813 36.3057 85.6889 36.7899C85.9964 37.2742 86.1533 37.8388 86.1399 38.4123C86.1265 38.9858 85.9433 39.5425 85.6135 40.0118C85.2836 40.4811 84.822 40.842 84.2871 41.0488C83.7521 41.2556 83.1679 41.299 82.6083 41.1735C82.0487 41.048 81.5389 40.7592 81.1434 40.3438C80.7479 39.9283 80.4845 39.4048 80.3866 38.8396C80.2887 38.2743 80.3606 37.6927 80.5932 37.1683L80.5973 37.1642Z" fill="white"/>
</svg>
