<svg width="88" height="87" viewBox="0 0 88 87" fill="none" xmlns="http://www.w3.org/2000/svg">
<path d="M79.2602 62.6617C68.559 76.9356 45.7091 72.1183 31.0551 72.8084C31.0551 72.8084 28.4589 72.9559 25.8497 73.3856C25.8497 73.3856 26.8379 72.9646 28.0992 72.5263C38.3886 68.9632 43.2516 68.2472 49.5058 65.0313C61.2516 59.0075 72.9453 45.8794 75.3247 32.2434C70.8518 45.3586 57.2511 56.6466 44.8682 61.2296C36.3949 64.363 21.0648 67.4096 21.0604 67.4096C21.0691 67.4182 20.4493 67.0884 20.4406 67.0797C10.0169 62.0021 9.71346 39.3912 28.6496 32.1046C36.954 28.9104 44.8899 30.6637 53.8661 28.5242C63.436 26.2457 74.5229 19.0632 79.0262 9.67167C84.0755 24.679 90.1434 48.1491 79.2602 62.6617ZM79.4422 5.02799C78.1723 8.05723 76.6163 10.787 74.8263 13.2304C66.9424 5.1278 55.9335 0.0761719 43.763 0.0761719C19.8252 0.0761719 0.355896 19.571 0.355896 43.5358C0.355896 56.0998 5.70865 67.4269 14.247 75.3646L15.2006 76.2065C13.6142 74.9132 13.3672 72.5784 14.6545 70.9856C15.9504 69.3929 18.2822 69.1499 19.8685 70.4388C21.4592 71.7321 21.7062 74.0713 20.4146 75.664C19.1317 77.2568 16.7956 77.4998 15.2049 76.2109L15.8507 76.7837C23.4009 83.1547 33.1355 86.9998 43.763 86.9998C66.639 86.9998 85.4278 69.1716 87.0358 46.6736C88.2234 35.6546 84.9727 21.6628 79.4422 5.02799Z" fill="white"/>
</svg>
