<svg width="98" height="98" viewBox="0 0 98 98" fill="none" xmlns="http://www.w3.org/2000/svg">
<path d="M0.085083 48.9501V97.6801H97.5449V0.220215H0.085083V48.9501ZM78.6255 45.068C81.1026 45.6852 82.9869 46.7857 84.7208 48.5806C85.6183 49.539 86.9502 51.2851 87.0558 51.7074C87.0883 51.8293 82.8488 54.6718 80.2824 56.2677C80.189 56.3287 79.8154 55.9266 79.4012 55.3094C78.1423 53.482 76.8306 52.6942 74.8205 52.5561C71.8643 52.3531 69.9638 53.9003 69.98 56.483C69.9531 57.1181 70.0961 57.7489 70.3942 58.3103C71.044 59.6545 72.2541 60.4626 76.0388 62.0991C83.0193 65.1041 86.0041 67.0817 87.8599 69.8959C89.9309 73.0349 90.3979 78.05 88.9888 81.7779C87.4456 85.8306 83.6082 88.5838 78.2073 89.4934C76.5383 89.7899 72.579 89.7452 70.7841 89.4203C66.8694 88.7219 63.1578 86.7889 60.8675 84.2509C59.9701 83.2641 58.2199 80.6774 58.3295 80.4946C58.611 80.2794 58.9098 80.0879 59.2229 79.9221C59.6615 79.6744 61.298 78.7282 62.8452 77.8307L65.6471 76.2064L66.236 77.0754C67.0562 78.3262 68.8471 80.0439 69.9313 80.6165C73.0419 82.257 77.3098 82.0256 79.4133 80.1373C79.8363 79.781 80.1712 79.3316 80.3917 78.8244C80.6122 78.3172 80.7123 77.7659 80.6844 77.2135C80.6844 76.0846 80.5422 75.5892 79.9534 74.7364C79.1981 73.6562 77.6509 72.7466 73.2571 70.838C68.2298 68.6736 66.0654 67.3294 64.0837 65.1934C62.8469 63.7838 61.9335 62.1206 61.4076 60.3205C61.0381 58.9438 60.9447 55.4921 61.2371 54.1033C62.2726 49.2425 65.9395 45.8598 71.2308 44.8528C72.9485 44.5279 76.9403 44.6497 78.6255 45.068ZM55.7468 49.1369L55.7793 53.1287H43.0892V89.1726H34.1148V53.1287H21.4369V49.2141C21.4369 47.0456 21.4816 45.2345 21.5425 45.1939C21.5912 45.1289 29.3109 45.0964 38.667 45.1127L55.7022 45.1614L55.7468 49.1369Z" fill="white"/>
</svg>
